<svg width="4" height="6" viewBox="0 0 4 6" fill="none" xmlns="http://www.w3.org/2000/svg">
<path d="M0 0.250101L0 5.7501C1.84483e-05 5.79563 0.0124707 5.84029 0.0360129 5.87927C0.0595551 5.91824 0.0932934 5.95004 0.133587 5.97124C0.17388 5.99244 0.219198 6.00224 0.264651 5.99957C0.310103 5.9969 0.353964 5.98187 0.3915 5.9561L3.3915 3.2061C3.42491 3.18313 3.45224 3.15237 3.47111 3.11648C3.48999 3.08059 3.49985 3.04065 3.49985 3.0001C3.49985 2.95955 3.48999 2.91961 3.47111 2.88372C3.45224 2.84783 3.42491 2.81708 3.3915 2.7941L0.3915 0.0441012C0.353964 0.0183308 0.310103 0.00330005 0.264651 0.000631809C0.219198 -0.00203643 0.17388 0.00775914 0.133587 0.0289607C0.0932934 0.0501623 0.0595551 0.0819649 0.0360129 0.120937C0.0124707 0.159909 1.84483e-05 0.20457 0 0.250101Z" fill="#334FB4"/>
</svg>
