<svg width="32" height="32" viewBox="0 0 32 32" fill="none" xmlns="http://www.w3.org/2000/svg">
<g clip-path="url(#clip0_162_4722)">
<path d="M32 16.096C31.9996 13.0384 31.1232 10.0449 29.4744 7.46996C27.8256 4.895 25.4735 2.84639 22.6966 1.56666C19.9197 0.28694 16.8343 -0.170309 13.8055 0.249052C10.7768 0.668412 7.93171 1.94682 5.60699 3.93293C3.28227 5.91903 1.57532 8.52966 0.688211 11.4557C-0.198895 14.3818 -0.229004 17.5008 0.601451 20.4435C1.43191 23.3862 3.08814 26.0293 5.37409 28.0599C7.66003 30.0905 10.48 31.4236 13.5 31.9013V20.7213H9.43733V16.096H13.5V12.5707C13.5 8.56133 15.8893 6.34533 19.5427 6.34533C20.7429 6.36254 21.9402 6.46682 23.1253 6.65733V10.596H21.1067C20.499 10.5153 19.8842 10.6793 19.3973 11.0518C18.9105 11.4244 18.5916 11.975 18.5107 12.5827C18.4878 12.7528 18.4842 12.925 18.5 13.096V16.096H22.9333L22.224 20.7213H18.4907V31.9013C22.2561 31.308 25.6859 29.3898 28.1626 26.4921C30.6393 23.5945 32.0001 19.9078 32 16.096Z" fill="#334FB4"/>
</g>
<defs>
<clipPath id="clip0_162_4722">
<rect width="32" height="32" fill="white"/>
</clipPath>
</defs>
</svg>
