<svg width="32" height="32" viewBox="0 0 32 32" fill="none" xmlns="http://www.w3.org/2000/svg">
<path d="M15.9997 3.97616C19.9157 3.97616 20.3797 3.99083 21.9263 4.0615C22.8562 4.07233 23.7772 4.24327 24.649 4.56683C25.2863 4.80164 25.8628 5.17665 26.3357 5.66416C26.8232 6.13708 27.1982 6.7135 27.433 7.35083C27.7566 8.22263 27.9275 9.14365 27.9383 10.0735C28.009 11.6202 28.0237 12.0842 28.0237 16.0002C28.0237 19.9162 28.009 20.3802 27.9383 21.9268C27.9275 22.8567 27.7566 23.7777 27.433 24.6495C27.1889 25.2821 26.8151 25.8567 26.3356 26.3361C25.8562 26.8156 25.2816 27.1894 24.649 27.4335C23.7772 27.7571 22.8562 27.928 21.9263 27.9388C20.3797 28.0095 19.9157 28.0242 15.9997 28.0242C12.0837 28.0242 11.6197 28.0095 10.073 27.9388C9.14317 27.928 8.22214 27.7571 7.35034 27.4335C6.71301 27.1987 6.13659 26.8237 5.66367 26.3362C5.17616 25.8632 4.80115 25.2868 4.56634 24.6495C4.24278 23.7777 4.07184 22.8567 4.06101 21.9268C3.99034 20.3802 3.97567 19.9162 3.97567 16.0002C3.97567 12.0842 3.99034 11.6202 4.06101 10.0735C4.07184 9.14365 4.24278 8.22263 4.56634 7.35083C4.80115 6.7135 5.17616 6.13708 5.66367 5.66416C6.13659 5.17665 6.71301 4.80164 7.35034 4.56683C8.22214 4.24327 9.14317 4.07233 10.073 4.0615C11.6197 3.99083 12.0837 3.97616 15.9997 3.97616ZM15.9997 1.3335C12.017 1.3335 11.517 1.35083 9.95301 1.4215C8.73645 1.44664 7.53287 1.67699 6.39301 2.10283C5.41774 2.48039 4.53221 3.05775 3.79329 3.79781C3.05437 4.53788 2.47839 5.42431 2.10234 6.40016C1.6765 7.54003 1.44615 8.74361 1.42101 9.96016C1.35034 11.5175 1.33301 12.0175 1.33301 16.0002C1.33301 19.9828 1.35034 20.4828 1.42101 22.0468C1.44615 23.2634 1.6765 24.467 2.10234 25.6068C2.4799 26.5821 3.05726 27.4676 3.79733 28.2065C4.5374 28.9455 5.42382 29.5215 6.39967 29.8975C7.53954 30.3233 8.74312 30.5537 9.95967 30.5788C11.517 30.6495 12.017 30.6668 15.9997 30.6668C19.9823 30.6668 20.4823 30.6495 22.0463 30.5788C23.2629 30.5537 24.4665 30.3233 25.6063 29.8975C26.5816 29.5199 27.4671 28.9426 28.2061 28.2025C28.945 27.4624 29.521 26.576 29.897 25.6002C30.3229 24.4603 30.5532 23.2567 30.5783 22.0402C30.649 20.4828 30.6663 19.9828 30.6663 16.0002C30.6663 12.0175 30.649 11.5175 30.5783 9.9535C30.5532 8.73694 30.3229 7.53336 29.897 6.3935C29.5194 5.41823 28.9421 4.5327 28.202 3.79378C27.462 3.05486 26.5755 2.47888 25.5997 2.10283C24.4598 1.67699 23.2562 1.44664 22.0397 1.4215C20.4823 1.35083 19.9823 1.3335 15.9997 1.3335Z" fill="#334FB4"/>
<path d="M15.9997 8.46814C14.51 8.46814 13.0537 8.90988 11.8151 9.73751C10.5765 10.5651 9.61107 11.7415 9.04099 13.1178C8.47091 14.4941 8.32176 16.0085 8.61238 17.4696C8.903 18.9306 9.62036 20.2727 10.6737 21.3261C11.7271 22.3794 13.0692 23.0968 14.5302 23.3874C15.9913 23.678 17.5057 23.5289 18.882 22.9588C20.2583 22.3887 21.4347 21.4233 22.2623 20.1847C23.0899 18.9461 23.5317 17.4898 23.5317 16.0001C23.5317 14.0025 22.7381 12.0867 21.3256 10.6742C19.9131 9.26169 17.9973 8.46814 15.9997 8.46814ZM15.9997 20.8895C15.0326 20.8895 14.0873 20.6027 13.2833 20.0655C12.4792 19.5282 11.8526 18.7646 11.4825 17.8712C11.1124 16.9778 11.0156 15.9947 11.2043 15.0463C11.3929 14.0978 11.8586 13.2266 12.5424 12.5429C13.2262 11.8591 14.0974 11.3934 15.0458 11.2048C15.9942 11.0161 16.9773 11.1129 17.8707 11.483C18.7641 11.853 19.5277 12.4797 20.065 13.2838C20.6022 14.0878 20.889 15.0331 20.889 16.0001C20.889 17.2969 20.3739 18.5405 19.4569 19.4574C18.54 20.3743 17.2964 20.8895 15.9997 20.8895Z" fill="#334FB4"/>
<path d="M23.8293 9.93064C24.8014 9.93064 25.5893 9.14267 25.5893 8.17064C25.5893 7.19862 24.8014 6.41064 23.8293 6.41064C22.8573 6.41064 22.0693 7.19862 22.0693 8.17064C22.0693 9.14267 22.8573 9.93064 23.8293 9.93064Z" fill="#334FB4"/>
</svg>
