<svg width="32" height="32" viewBox="0 0 32 32" fill="none" xmlns="http://www.w3.org/2000/svg">
<path d="M32 6.13332C30.8 6.66665 29.6 7.06665 28.2667 7.19998C29.6 6.39998 30.6667 5.06665 31.2 3.59998C29.8667 4.39998 28.5333 4.93332 27.0667 5.19998C25.8667 3.86665 24.1333 3.06665 22.2667 3.06665C18.6667 3.06665 15.7333 5.99998 15.7333 9.59998C15.7333 10.1333 15.7333 10.6667 15.8667 11.0667C10.2667 10.8 5.46667 8.13332 2.26667 4.13332C1.6 5.19998 1.33333 6.26665 1.33333 7.46665C1.33333 9.73332 2.53333 11.7333 4.26667 12.9333C3.2 12.9333 2.13333 12.6667 1.33333 12.1333C1.33333 12.1333 1.33333 12.1333 1.33333 12.2667C1.33333 15.4667 3.6 18.1333 6.53333 18.6667C6 18.8 5.46667 18.9333 4.8 18.9333C4.4 18.9333 4 18.9333 3.6 18.8C4.4 21.4667 6.8 23.3333 9.73333 23.3333C7.46667 25.0667 4.66667 26.1333 1.6 26.1333C1.06667 26.1333 0.533333 26.1333 0 26C2.93333 27.8667 6.4 28.9333 10 28.9333C22.1333 28.9333 28.6667 18.9333 28.6667 10.2667C28.6667 9.99998 28.6667 9.73332 28.6667 9.46665C30 8.53332 31.0667 7.33332 32 6.13332Z" fill="#334FB4"/>
</svg>
