<svg width="320" height="54" viewBox="0 0 320 54" fill="none" xmlns="http://www.w3.org/2000/svg">
<path d="M27.0001 54C41.9118 54 54.0001 41.9117 54.0001 27C54.0001 12.0883 41.9118 0 27.0001 0C12.0883 0 0 12.0883 0 27C0 41.9117 12.0883 54 27.0001 54Z" fill="#7ED957"/>
<path d="M27.0066 44.6059C36.7299 44.6059 44.6122 36.7237 44.6122 27.0004C44.6122 17.2771 36.7299 9.39484 27.0066 9.39484C17.2834 9.39484 9.40112 17.2771 9.40112 27.0004C9.40112 36.7237 17.2834 44.6059 27.0066 44.6059Z" fill="#349CE2"/>
<path fill-rule="evenodd" clip-rule="evenodd" d="M23.9864 19.1806V14.3174C23.9864 13.6221 24.5505 13.0576 25.2458 13.0576C25.9412 13.0576 26.5062 13.6221 26.5062 14.3174V19.1806H31.9398V19.1807C32.6277 19.1896 33.1832 19.7506 33.1832 20.4404C33.1832 21.1302 32.6277 21.6912 31.9398 21.7001V21.7002H26.5062V32.8477C26.5062 33.2261 26.5601 33.8614 26.9966 34.2988C27.2829 34.5857 27.7364 34.7444 28.3996 34.7444C30.1041 34.7444 30.3809 33.0625 30.3809 32.5914C30.3809 31.8961 30.945 31.3317 31.6403 31.3317C32.3357 31.3317 32.8998 31.8961 32.8998 32.5914C32.8998 33.636 32.1789 37.2639 28.3996 37.2639C26.8681 37.2639 25.8742 36.7413 25.2128 36.0787C24.2283 35.092 23.9864 33.7015 23.9864 32.8477V21.7002H17.8584V21.7001C17.1705 21.6912 16.615 21.1302 16.615 20.4404C16.615 19.7506 17.1705 19.1896 17.8584 19.1807V19.1806H23.9864Z" fill="#2A297C"/>
<path fill-rule="evenodd" clip-rule="evenodd" d="M24.0005 21.7002V33.0583C24.0005 33.677 24.1942 35.0385 25.1721 36.0255C25.8316 36.6917 26.8548 37.1498 28.3826 37.1498C32.2261 37.1498 32.9233 33.6534 32.9233 32.5914C32.9233 31.8961 33.4874 31.3317 34.1828 31.3317C34.8781 31.3317 35.4422 31.8961 35.4422 32.5914C35.4422 34.2415 34.3538 39.6693 28.3826 39.6693C25.9846 39.6693 24.4172 38.8442 23.3817 37.7987C21.8161 36.2184 21.4807 34.0488 21.4807 33.0583V14.3174C21.4807 13.6221 22.0457 13.0576 22.7401 13.0576C23.4355 13.0576 24.0005 13.6221 24.0005 14.3174V19.1806H31.9398V19.1807C32.6276 19.1896 33.1832 19.7506 33.1832 20.4404C33.1832 21.1302 32.6276 21.6912 31.9398 21.7001V21.7002H24.0005Z" fill="white"/>
<path d="M71.4052 28.038V11.0462H65.5891V8.10968H80.8701V11.0462H75.0398V28.038H71.4052Z" fill="white"/>
<path d="M83.4935 28.0379V7.55386H87.1286V16.0782C87.6132 15.3084 88.2545 14.6954 89.0527 14.2535C89.8653 13.7974 90.7917 13.5836 91.8323 13.5836C93.5714 13.5836 94.9257 14.1253 95.8808 15.2229C96.8359 16.3348 97.3206 17.9454 97.3206 20.0694V28.0379H93.7141V20.4115C93.7141 19.1998 93.4717 18.2733 92.9871 17.6176C92.5024 16.9762 91.7328 16.6484 90.6922 16.6484C89.6659 16.6484 88.8106 17.0189 88.1406 17.7316C87.4706 18.4586 87.1286 19.4566 87.1286 20.7538V28.0379H83.4935Z" fill="white"/>
<path d="M107.655 28.38C106.23 28.38 104.961 28.0664 103.863 27.4677C102.766 26.8547 101.896 25.9994 101.283 24.9018C100.656 23.8042 100.342 22.5356 100.342 21.0959C100.342 19.6276 100.642 18.3305 101.255 17.1901C101.882 16.0497 102.737 15.1658 103.821 14.5385C104.918 13.8971 106.201 13.5836 107.684 13.5836C109.066 13.5836 110.292 13.883 111.347 14.4959C112.416 15.0946 113.243 15.9214 113.842 16.9762C114.44 18.0311 114.74 19.1999 114.74 20.4971C114.74 20.6967 114.725 20.9247 114.725 21.1528C114.711 21.3808 114.697 21.6089 114.683 21.8655H103.949C104.02 22.9631 104.405 23.8185 105.103 24.4457C105.802 25.0729 106.629 25.3866 107.626 25.3866C108.353 25.3866 108.981 25.2154 109.48 24.8875C109.993 24.5596 110.364 24.1321 110.606 23.5905H114.312C114.041 24.4885 113.599 25.301 112.986 26.028C112.373 26.7549 111.603 27.3393 110.705 27.7527C109.807 28.1661 108.781 28.38 107.655 28.38ZM107.684 16.5342C106.786 16.5342 106.001 16.7909 105.317 17.2898C104.633 17.7887 104.191 18.5584 104.006 19.5848H111.033C110.976 18.6582 110.634 17.9171 110.007 17.3611C109.38 16.8195 108.61 16.5342 107.684 16.5342Z" fill="white"/>
<path d="M128.709 28.038L123.435 8.10968H127.341L130.919 23.9611L135.138 8.10968H139.144L143.249 23.9611L146.827 8.10968H150.761L145.344 28.038H141.025L137.077 13.2701L133 28.038H128.709Z" fill="white"/>
<path d="M158.673 28.38C157.247 28.38 155.978 28.0664 154.881 27.4677C153.783 26.8547 152.914 25.9994 152.301 24.9018C151.674 23.8042 151.36 22.5356 151.36 21.0959C151.36 19.6276 151.659 18.3305 152.287 17.1901C152.9 16.0497 153.755 15.1658 154.838 14.5385C155.936 13.8971 157.219 13.5836 158.701 13.5836C160.084 13.5836 161.31 13.883 162.364 14.4959C163.434 15.0946 164.26 15.9214 164.859 16.9762C165.458 18.0311 165.757 19.1999 165.757 20.4971C165.757 20.6967 165.743 20.9247 165.743 21.1528C165.729 21.3808 165.714 21.6089 165.7 21.8655H154.966C155.038 22.9631 155.423 23.8185 156.121 24.4457C156.82 25.0729 157.646 25.3866 158.644 25.3866C159.371 25.3866 159.998 25.2154 160.497 24.8875C161.011 24.5596 161.381 24.1321 161.623 23.5905H165.33C165.059 24.4885 164.617 25.301 164.004 26.028C163.391 26.7549 162.621 27.3393 161.723 27.7527C160.825 28.1661 159.813 28.38 158.673 28.38ZM158.701 16.5342C157.803 16.5342 157.019 16.7909 156.335 17.2898C155.651 17.7887 155.209 18.5584 155.023 19.5848H162.051C161.994 18.6582 161.652 17.9171 161.025 17.3611C160.397 16.8195 159.628 16.5342 158.701 16.5342Z" fill="white"/>
<path d="M172.465 7.55386H168.822V28.0407H172.465V7.55386Z" fill="white"/>
<path d="M179.834 7.55386H176.192V28.0407H179.834V7.55386Z" fill="white"/>
<path d="M191.929 28.38C190.86 28.38 189.933 28.1804 189.135 27.7813C188.351 27.3821 187.696 26.8263 187.211 26.0993L186.812 28.0379H183.562V7.55386H187.211V15.9357C187.667 15.3085 188.266 14.7667 189.021 14.2963C189.763 13.8117 190.732 13.5836 191.929 13.5836C193.255 13.5836 194.438 13.8971 195.493 14.5528C196.533 15.1943 197.36 16.0782 197.959 17.1901C198.572 18.3162 198.871 19.5848 198.871 21.0103C198.871 22.4357 198.572 23.6902 197.959 24.8021C197.36 25.9139 196.533 26.7834 195.493 27.4249C194.438 28.0521 193.255 28.38 191.929 28.38ZM191.16 25.187C192.314 25.187 193.284 24.802 194.039 24.018C194.795 23.2482 195.179 22.2362 195.179 21.0103C195.179 19.7701 194.795 18.758 194.039 17.9597C193.284 17.1615 192.314 16.7624 191.16 16.7624C189.991 16.7624 189.021 17.1614 188.28 17.9455C187.525 18.7295 187.154 19.7416 187.154 20.9817C187.154 22.2076 187.525 23.2197 188.28 24.0037C189.021 24.802 189.991 25.187 191.16 25.187Z" fill="white"/>
<path d="M208.978 28.38C207.553 28.38 206.284 28.0664 205.186 27.4677C204.088 26.8547 203.233 25.9994 202.606 24.9018C201.979 23.8042 201.665 22.5356 201.665 21.0959C201.665 19.6276 201.965 18.3305 202.592 17.1901C203.205 16.0497 204.06 15.1658 205.143 14.5385C206.241 13.8971 207.524 13.5836 209.007 13.5836C210.389 13.5836 211.615 13.883 212.67 14.4959C213.739 15.0946 214.566 15.9214 215.164 16.9762C215.763 18.0311 216.063 19.1999 216.063 20.4971C216.063 20.6967 216.048 20.9247 216.048 21.1528C216.034 21.3808 216.02 21.6089 216.006 21.8655H205.272C205.357 22.9631 205.742 23.8185 206.426 24.4457C207.125 25.0729 207.966 25.3866 208.949 25.3866C209.691 25.3866 210.303 25.2154 210.817 24.8875C211.316 24.5596 211.686 24.1321 211.928 23.5905H215.635C215.364 24.4885 214.922 25.301 214.309 26.028C213.696 26.7549 212.926 27.3393 212.028 27.7527C211.13 28.1661 210.118 28.38 208.978 28.38ZM209.007 16.5342C208.109 16.5342 207.324 16.7909 206.64 17.2898C205.956 17.7887 205.528 18.5584 205.329 19.5848H212.356C212.299 18.6582 211.957 17.9171 211.33 17.3611C210.717 16.8195 209.933 16.5342 209.007 16.5342Z" fill="white"/>
<path d="M221.094 11.7304C220.438 11.7304 219.882 11.531 219.455 11.1318C219.027 10.7327 218.813 10.2337 218.813 9.62073C218.813 9.02203 219.027 8.52305 219.455 8.12391C219.882 7.73904 220.438 7.55386 221.094 7.55386C221.764 7.55386 222.306 7.73904 222.733 8.12391C223.161 8.52305 223.375 9.02203 223.375 9.62073C223.375 10.2337 223.161 10.7327 222.733 11.1318C222.306 11.531 221.764 11.7304 221.094 11.7304ZM219.269 28.0379V13.9257H222.918V28.0379H219.269Z" fill="white"/>
<path d="M226.725 28.0379V13.9257H229.946L230.231 16.3061C230.659 15.4793 231.301 14.8095 232.127 14.3249C232.94 13.8259 233.923 13.5836 235.035 13.5836C236.788 13.5836 238.143 14.1253 239.112 15.2229C240.067 16.3348 240.552 17.9454 240.552 20.0694V28.0379H236.917V20.4115C236.917 19.1998 236.674 18.2733 236.176 17.6176C235.677 16.9762 234.921 16.6484 233.866 16.6484C232.854 16.6484 232.013 17.0189 231.358 17.7316C230.702 18.4586 230.374 19.4566 230.374 20.7538V28.0379H226.725Z" fill="white"/>
<path d="M250.003 23.8184C249.318 23.8184 248.691 23.7473 248.093 23.5905L247.038 24.6453C247.366 24.8163 247.807 24.9588 248.349 25.0728C248.905 25.1869 249.803 25.3009 251.029 25.4149C252.911 25.586 254.265 26.028 255.12 26.755C255.975 27.4677 256.403 28.4655 256.403 29.7484C256.403 30.5752 256.175 31.3735 255.719 32.1148C255.263 32.8703 254.564 33.469 253.623 33.9394C252.668 34.4098 251.457 34.6379 249.974 34.6379C247.964 34.6379 246.339 34.2672 245.113 33.5117C243.873 32.7562 243.26 31.6443 243.26 30.1333C243.26 28.8647 243.873 27.767 245.113 26.8404C244.728 26.6693 244.401 26.484 244.13 26.2987C243.859 26.1134 243.617 25.9139 243.403 25.7001V25.0443L245.883 22.4357C244.786 21.4664 244.23 20.212 244.23 18.701C244.23 17.7459 244.458 16.8907 244.928 16.1067C245.384 15.3369 246.054 14.7239 246.909 14.2678C247.75 13.8116 248.791 13.5836 250.003 13.5836C250.801 13.5836 251.542 13.6976 252.226 13.9257H257.572V16.1351L255.149 16.3061C255.534 17.0331 255.719 17.8315 255.719 18.701C255.719 19.6561 255.491 20.5113 255.035 21.2953C254.593 22.065 253.923 22.678 253.068 23.1342C252.198 23.5904 251.186 23.8184 250.003 23.8184ZM250.003 21.0388C250.744 21.0388 251.357 20.8392 251.842 20.44C252.326 20.0409 252.569 19.4708 252.569 18.7295C252.569 17.9883 252.326 17.418 251.842 17.0189C251.357 16.6197 250.744 16.4203 250.003 16.4203C249.233 16.4203 248.606 16.6197 248.121 17.0189C247.651 17.418 247.423 17.9883 247.423 18.7295C247.423 19.4708 247.651 20.0409 248.121 20.44C248.606 20.8392 249.233 21.0388 250.003 21.0388ZM246.596 29.777C246.596 30.4754 246.924 31.0028 247.579 31.345C248.221 31.7013 249.034 31.8724 249.974 31.8724C250.887 31.8724 251.628 31.687 252.198 31.3164C252.768 30.9458 253.053 30.4612 253.053 29.8198C253.053 29.3209 252.868 28.8932 252.497 28.5511C252.127 28.209 251.386 27.9951 250.288 27.9238C249.504 27.8668 248.791 27.7813 248.121 27.6673C247.58 27.9666 247.18 28.2944 246.952 28.6651C246.71 29.0214 246.596 29.3921 246.596 29.777Z" fill="white"/>
<path d="M267.08 28.038V8.10968H270.715V16.3918H279.653V8.10968H283.302V28.038H279.653V19.3567H270.715V28.038H267.08Z" fill="white"/>
<path d="M292.368 28.38C290.614 28.38 289.246 27.824 288.291 26.7264C287.336 25.6288 286.851 24.018 286.851 21.894V13.9257H290.472V21.5519C290.472 22.7636 290.714 23.6901 291.199 24.3315C291.698 24.973 292.481 25.3009 293.536 25.3009C294.548 25.3009 295.375 24.9445 296.031 24.2175C296.687 23.5048 297.015 22.4927 297.015 21.2098V13.9257H300.649V28.0379H297.442L297.157 25.643C296.715 26.4841 296.088 27.1398 295.261 27.6387C294.434 28.1234 293.465 28.38 292.368 28.38Z" fill="white"/>
<path d="M312.752 28.38C311.683 28.38 310.756 28.1804 309.958 27.7813C309.16 27.3821 308.518 26.8263 308.02 26.0993L307.62 28.0379H304.385V7.55386H308.02V15.9357C308.476 15.3085 309.074 14.7667 309.83 14.2963C310.571 13.8117 311.554 13.5836 312.752 13.5836C314.078 13.5836 315.261 13.8971 316.301 14.5528C317.342 15.1943 318.169 16.0782 318.782 17.1901C319.38 18.3162 319.694 19.5848 319.694 21.0103C319.694 22.4357 319.38 23.6902 318.782 24.8021C318.169 25.9139 317.342 26.7834 316.301 27.4249C315.261 28.0521 314.078 28.38 312.752 28.38ZM311.982 25.187C313.137 25.187 314.092 24.802 314.848 24.018C315.617 23.2482 315.988 22.2362 315.988 21.0103C315.988 19.7701 315.617 18.758 314.848 17.9597C314.092 17.1615 313.137 16.7624 311.982 16.7624C310.799 16.7624 309.844 17.1614 309.089 17.9455C308.333 18.7295 307.962 19.7416 307.962 20.9817C307.962 22.2076 308.333 23.2197 309.089 24.0037C309.844 24.802 310.799 25.187 311.982 25.187Z" fill="white"/>
<path d="M70.5984 47.6657V42.2547H69.6532V41.0766H70.5984V40.1182C70.5984 39.3994 70.7781 38.8869 71.1375 38.5675C71.4969 38.2546 72.0026 38.1016 72.6615 38.1016H73.3471V39.2929H72.8679C72.5617 39.2929 72.3421 39.3595 72.209 39.4859C72.0759 39.619 72.0093 39.832 72.0093 40.1315V41.0766H73.5201V42.2547H72.0093V47.6657H70.5984Z" fill="white"/>
<path d="M74.8646 47.6656V41.0765H76.1293L76.2424 42.3211C76.4753 41.8885 76.7948 41.549 77.2074 41.2961C77.62 41.0432 78.1192 40.9168 78.7049 40.9168V42.3876H78.3188C77.9262 42.3876 77.5802 42.4542 77.274 42.5807C76.9679 42.7138 76.7282 42.9268 76.5418 43.2329C76.3621 43.5391 76.269 43.9651 76.269 44.5042V47.6656H74.8646Z" fill="white"/>
<path d="M82.8113 47.8253C82.179 47.8253 81.6134 47.6789 81.1143 47.3927C80.6151 47.1065 80.2157 46.7005 79.9229 46.1813C79.63 45.6622 79.4835 45.0632 79.4835 44.371C79.4835 43.6788 79.6367 43.0732 79.9296 42.554C80.2291 42.0349 80.6283 41.6356 81.1341 41.3494C81.6399 41.0566 82.199 40.9168 82.8246 40.9168C83.4503 40.9168 84.016 41.0566 84.5152 41.3494C85.0144 41.6356 85.4137 42.0349 85.7132 42.554C86.0061 43.0732 86.1524 43.6788 86.1524 44.371C86.1524 45.0632 86.0061 45.6622 85.7132 46.1813C85.4137 46.7005 85.0143 47.1065 84.5085 47.3927C84.0027 47.6789 83.4369 47.8253 82.8113 47.8253ZM82.8113 46.614C83.1441 46.614 83.457 46.5274 83.7432 46.361C84.0294 46.1947 84.2624 45.9417 84.4421 45.609C84.6218 45.2828 84.7082 44.8635 84.7082 44.371C84.7082 43.8718 84.6218 43.4592 84.4487 43.1264C84.2757 42.7936 84.0427 42.5474 83.7565 42.3743C83.4703 42.2079 83.1574 42.1214 82.8246 42.1214C82.4852 42.1214 82.1724 42.2079 81.8863 42.3743C81.6001 42.5474 81.3671 42.7936 81.1874 43.1264C81.0077 43.4592 80.9212 43.8718 80.9212 44.371C80.9212 44.8635 81.0077 45.2828 81.1874 45.609C81.3671 45.9417 81.5934 46.1947 81.8796 46.361C82.1591 46.5274 82.4719 46.614 82.8113 46.614Z" fill="white"/>
<path d="M87.6832 47.6656V41.0765H88.9346L89.0543 42.0016C89.2673 41.6689 89.5468 41.4026 89.8929 41.2096C90.2457 41.0099 90.6516 40.9168 91.1108 40.9168C92.1557 40.9168 92.8812 41.3294 93.2872 42.1481C93.5268 41.7687 93.853 41.4692 94.2524 41.2496C94.6584 41.0233 95.091 40.9168 95.5635 40.9168C96.3821 40.9168 97.0343 41.163 97.5002 41.6622C97.9728 42.1547 98.2058 42.8935 98.2058 43.8785V47.6656H96.7947V44.0249C96.7947 42.747 96.3089 42.1081 95.3372 42.1081C94.838 42.1081 94.4319 42.2945 94.1191 42.6672C93.8063 43.0399 93.6466 43.5724 93.6466 44.2646V47.6656H92.2424V44.0249C92.2424 42.747 91.7499 42.1081 90.7648 42.1081C90.279 42.1081 89.8796 42.2945 89.5601 42.6672C89.2473 43.0399 89.0943 43.5724 89.0943 44.2646V47.6656H87.6832Z" fill="white"/>
<path d="M105.434 47.6657V39.5059H102.685V38.3611H109.58V39.5059H106.838V47.6657H105.434Z" fill="white"/>
<path d="M112.728 47.8253C112.083 47.8253 111.504 47.6789 111.004 47.3927C110.505 47.1065 110.113 46.7005 109.833 46.188C109.547 45.6755 109.407 45.0765 109.407 44.3977C109.407 43.7055 109.547 43.0998 109.826 42.574C110.099 42.0549 110.492 41.6488 110.991 41.356C111.49 41.0631 112.076 40.9168 112.741 40.9168C113.387 40.9168 113.946 41.0566 114.425 41.3494C114.904 41.6356 115.277 42.015 115.544 42.4942C115.81 42.9734 115.943 43.4992 115.943 44.0782C115.943 44.1647 115.936 44.2645 115.936 44.3644C115.929 44.4642 115.923 44.5773 115.916 44.7038H110.785C110.831 45.3361 111.044 45.822 111.417 46.1548C111.796 46.4875 112.229 46.6539 112.728 46.6539C113.128 46.6539 113.46 46.5607 113.733 46.381C113.999 46.2013 114.199 45.9551 114.332 45.6423H115.743C115.563 46.2679 115.211 46.7804 114.685 47.1997C114.159 47.619 113.507 47.8253 112.728 47.8253ZM112.728 42.0682C112.256 42.0682 111.843 42.208 111.477 42.4875C111.117 42.767 110.891 43.1863 110.811 43.7454H114.532C114.505 43.2329 114.326 42.8202 113.986 42.5207C113.653 42.2212 113.234 42.0682 112.728 42.0682Z" fill="white"/>
<path d="M120.482 47.8253C119.836 47.8253 119.264 47.6789 118.765 47.3927C118.266 47.1065 117.873 46.7005 117.587 46.188C117.307 45.6755 117.161 45.0765 117.161 44.3977C117.161 43.7055 117.301 43.0998 117.58 42.574C117.86 42.0549 118.252 41.6488 118.752 41.356C119.251 41.0631 119.836 40.9168 120.495 40.9168C121.148 40.9168 121.707 41.0566 122.186 41.3494C122.665 41.6356 123.038 42.015 123.304 42.4942C123.57 42.9734 123.703 43.4992 123.703 44.0782C123.703 44.1647 123.697 44.2645 123.697 44.3644C123.69 44.4642 123.683 44.5773 123.67 44.7038H118.545C118.592 45.3361 118.798 45.822 119.178 46.1548C119.55 46.4875 119.99 46.6539 120.482 46.6539C120.881 46.6539 121.221 46.5607 121.487 46.381C121.76 46.2013 121.96 45.9551 122.093 45.6423H123.504C123.324 46.2679 122.971 46.7804 122.445 47.1997C121.92 47.619 121.267 47.8253 120.482 47.8253ZM120.482 42.0682C120.016 42.0682 119.597 42.208 119.237 42.4875C118.871 42.767 118.652 43.1863 118.572 43.7454H122.292C122.266 43.2329 122.086 42.8202 121.747 42.5207C121.414 42.2212 120.988 42.0682 120.482 42.0682Z" fill="white"/>
<path d="M125.161 47.6656V41.0765H126.412L126.519 42.2279C126.718 41.8219 127.018 41.5025 127.41 41.2695C127.81 41.0299 128.262 40.9168 128.775 40.9168C129.573 40.9168 130.199 41.163 130.658 41.6622C131.111 42.1547 131.337 42.8935 131.337 43.8785V47.6656H129.946V44.0249C129.946 42.747 129.421 42.1081 128.376 42.1081C127.856 42.1081 127.424 42.2945 127.084 42.6672C126.738 43.0399 126.572 43.5724 126.572 44.2646V47.6656H125.161Z" fill="white"/>
<path d="M138.579 47.6657V39.5059H135.83V38.3611H142.725V39.5059H139.99V47.6657H138.579Z" fill="white"/>
<path d="M144.782 39.8254C144.515 39.8254 144.302 39.7455 144.129 39.5791C143.956 39.4127 143.87 39.213 143.87 38.9601C143.87 38.7139 143.956 38.5076 144.129 38.3412C144.302 38.1815 144.515 38.1016 144.782 38.1016C145.048 38.1016 145.267 38.1815 145.441 38.3412C145.614 38.5076 145.7 38.7139 145.7 38.9601C145.7 39.213 145.614 39.4127 145.441 39.5791C145.267 39.7455 145.048 39.8254 144.782 39.8254ZM144.083 47.6657V41.0766H145.487V47.6657H144.083Z" fill="white"/>
<path d="M147.35 50.5874V41.0765H148.608L148.755 42.0948C148.968 41.7887 149.261 41.5157 149.633 41.2761C150.006 41.0365 150.485 40.9168 151.071 40.9168C151.703 40.9168 152.269 41.0632 152.755 41.3693C153.241 41.6688 153.627 42.0815 153.906 42.6007C154.186 43.1265 154.326 43.7188 154.326 44.3843C154.326 45.0499 154.186 45.6356 153.906 46.1548C153.627 46.6739 153.241 47.0799 152.755 47.3794C152.269 47.6722 151.703 47.8253 151.058 47.8253C150.539 47.8253 150.086 47.7188 149.693 47.5191C149.301 47.3128 148.988 47.0266 148.755 46.6539V50.5874H147.35ZM150.818 46.6006C151.417 46.6006 151.916 46.3944 152.302 45.9817C152.695 45.5691 152.888 45.0366 152.888 44.371C152.888 43.9384 152.802 43.5524 152.622 43.2129C152.442 42.8735 152.202 42.614 151.89 42.421C151.583 42.2346 151.224 42.1347 150.818 42.1347C150.213 42.1347 149.72 42.3478 149.334 42.7604C148.948 43.1797 148.755 43.7121 148.755 44.371C148.755 45.0366 148.948 45.5691 149.334 45.9817C149.72 46.3944 150.213 46.6006 150.818 46.6006Z" fill="white"/>
<path d="M158.479 47.8253C157.647 47.8253 156.961 47.619 156.422 47.213C155.883 46.807 155.57 46.2679 155.49 45.589H156.915C156.988 45.8952 157.154 46.1547 157.421 46.3677C157.687 46.5873 158.033 46.6938 158.466 46.6938C158.891 46.6938 159.204 46.6074 159.397 46.4277C159.59 46.2546 159.69 46.0483 159.69 45.8153C159.69 45.4825 159.557 45.2562 159.284 45.1364C159.018 45.0166 158.639 44.9035 158.159 44.8103C157.793 44.7304 157.421 44.624 157.054 44.4909C156.688 44.3577 156.382 44.1647 156.136 43.9251C155.89 43.6789 155.77 43.3528 155.77 42.9335C155.77 42.3611 155.99 41.8752 156.436 41.4958C156.881 41.1098 157.5 40.9168 158.292 40.9168C159.031 40.9168 159.624 41.0898 160.083 41.4492C160.535 41.8019 160.808 42.3011 160.888 42.9467H159.53C159.484 42.6672 159.357 42.4409 159.138 42.2811C158.925 42.1214 158.632 42.0415 158.266 42.0415C157.913 42.0415 157.64 42.1148 157.447 42.2612C157.248 42.4077 157.154 42.6007 157.154 42.8269C157.154 43.0599 157.287 43.2396 157.56 43.3727C157.826 43.5058 158.186 43.6256 158.625 43.7321C159.071 43.8319 159.477 43.9451 159.856 44.0715C160.236 44.198 160.535 44.3843 160.768 44.6373C160.995 44.8835 161.114 45.2429 161.114 45.7221C161.121 46.3278 160.888 46.827 160.416 47.2263C159.943 47.6256 159.297 47.8253 158.479 47.8253Z" fill="white"/>
</svg>
