<svg width="32" height="32" viewBox="0 0 32 32" fill="none" xmlns="http://www.w3.org/2000/svg">
<path d="M31.7333 9.59999C31.7333 9.59999 31.4667 7.33332 30.4 6.39999C29.2 5.06665 27.8667 5.06665 27.2 5.06665C22.6667 4.79999 16 4.79999 16 4.79999C16 4.79999 9.33333 4.79999 4.8 5.06665C4.13333 5.19999 2.8 5.19999 1.6 6.39999C0.666667 7.33332 0.266667 9.59999 0.266667 9.59999C0.266667 9.59999 0 12.1333 0 14.8V17.2C0 19.7333 0.266667 22.4 0.266667 22.4C0.266667 22.4 0.533333 24.6667 1.6 25.6C2.8 26.9333 4.4 26.8 5.06667 26.9333C7.6 27.2 16 27.2 16 27.2C16 27.2 22.6667 27.2 27.2 26.8C27.8667 26.6667 29.2 26.6667 30.4 25.4667C31.3333 24.5333 31.7333 22.2667 31.7333 22.2667C31.7333 22.2667 32 19.7333 32 17.0667V14.6667C32 12.1333 31.7333 9.59999 31.7333 9.59999ZM12.6667 20.1333V11.2L21.3333 15.7333L12.6667 20.1333Z" fill="#334FB4"/>
</svg>
